<svg width="873" height="514" viewBox="0 0 873 514" fill="none" xmlns="http://www.w3.org/2000/svg">
<g clip-path="url(#clip0_217_57)">
<path d="M560.14 -49C486.567 -49.094 413.701 -34.6486 345.729 -6.49382C277.756 21.661 216.018 62.9702 164.06 115.06C155.15 123.97 146.583 133.127 138.36 142.53C121.469 161.785 105.929 182.183 91.85 203.58C87.79 209.75 83.8566 216 80.05 222.33C66.3803 245.041 54.3401 268.694 44.02 293.11C42.89 295.77 41.7866 298.44 40.7099 301.12C34.7199 315.89 29.3899 330.853 24.7199 346.01C12.7258 384.876 5.04622 424.944 1.81992 465.49C0.609923 480.6 0.00325704 495.817 -7.62939e-05 511.14V512.14H1061.98V-49H560.14ZM1059.98 510.14H1.99998C2.01998 496.54 2.52665 483.063 3.51998 469.71C6.52178 428.809 14.0546 388.368 25.98 349.13C30.64 333.79 35.9333 318.74 41.86 303.98C52.8262 276.64 65.9509 250.217 81.11 224.96C84.9 218.61 88.83 212.343 92.9 206.16C106.948 184.692 122.458 164.217 139.32 144.88C241.72 27.38 392.41 -47 560.14 -47H1059.98V510.14Z" fill="#3F3D56"/>
<path d="M495.593 431.863C509.08 472.453 504.343 510.565 504.343 510.565C504.343 510.565 477.74 482.867 464.253 442.277C450.766 401.687 455.502 363.576 455.502 363.576C455.502 363.576 482.106 391.273 495.593 431.863Z" fill="#FFB300"/>
<path d="M513.093 431.863C499.606 472.453 504.343 510.565 504.343 510.565C504.343 510.565 530.946 482.867 544.433 442.277C557.92 401.687 553.184 363.576 553.184 363.576C553.184 363.576 526.58 391.273 513.093 431.863Z" fill="#FFB300"/>
<path d="M518.525 432.302C519.429 475.065 503.654 510.079 503.654 510.079C503.654 510.079 486.412 475.763 485.508 433C484.604 390.238 500.38 355.223 500.38 355.223C500.38 355.223 517.621 389.54 518.525 432.302Z" fill="#3F3D56"/>
<path d="M503.645 512.655C524.71 512.655 541.786 511.718 541.786 510.562C541.786 509.406 524.71 508.469 503.645 508.469C482.58 508.469 465.503 509.406 465.503 510.562C465.503 511.718 482.58 512.655 503.645 512.655Z" fill="#3F3D56"/>
<path d="M140.01 511.213C151.962 511.213 161.651 501.524 161.651 489.572C161.651 477.619 151.962 467.93 140.01 467.93C128.058 467.93 118.369 477.619 118.369 489.572C118.369 501.524 128.058 511.213 140.01 511.213Z" fill="#F2F2F2"/>
<path d="M143.98 454.56C136.221 454.571 128.784 457.658 123.298 463.145C117.813 468.633 114.728 476.071 114.72 483.83C114.72 483.99 114.72 484.15 114.73 484.31C114.825 489.712 116.411 494.983 119.312 499.541C122.213 504.098 126.316 507.767 131.17 510.14C132.888 510.986 134.687 511.657 136.54 512.14C141.421 513.42 146.549 513.42 151.43 512.14C153.283 511.657 155.082 510.986 156.8 510.14C162.751 507.241 167.543 502.411 170.395 496.437C173.246 490.464 173.989 483.7 172.501 477.25C171.013 470.8 167.383 465.045 162.203 460.924C157.023 456.803 150.599 454.56 143.98 454.56ZM151.14 510.14C148.807 510.781 146.399 511.104 143.98 511.1C143.5 511.1 143.02 511.09 142.55 511.06H142.54C140.609 510.964 138.694 510.656 136.83 510.14C132.89 509.061 129.242 507.113 126.153 504.439C123.064 501.766 120.613 498.435 118.98 494.69V494.68C116.768 489.58 116.169 483.926 117.261 478.476C118.354 473.026 121.086 468.04 125.093 464.187C129.099 460.334 134.187 457.797 139.676 456.917C145.164 456.038 150.791 456.857 155.801 459.265C160.81 461.674 164.964 465.556 167.705 470.392C170.446 475.228 171.643 480.786 171.136 486.321C170.629 491.856 168.442 497.105 164.868 501.362C161.294 505.619 156.504 508.682 151.14 510.14V510.14Z" fill="#3F3D56"/>
<path d="M389.99 342.524H227.99V371.29H389.99V342.524Z" fill="#F2F2F2"/>
<path d="M894.99 73.5237H732.99V102.29H894.99V73.5237Z" fill="#F2F2F2"/>
<path d="M894.99 136.524H732.99V165.29H894.99V136.524Z" fill="#F2F2F2"/>
<path d="M894.99 197.524H732.99V226.29H894.99V197.524Z" fill="#F2F2F2"/>
<path d="M894.99 258.524H732.99V287.29H894.99V258.524Z" fill="#F2F2F2"/>
<path d="M894.99 321.524H732.99V350.29H894.99V321.524Z" fill="#F2F2F2"/>
<path d="M894.99 384.524H732.99V413.29H894.99V384.524Z" fill="#F2F2F2"/>
<path d="M226.99 332.29V372.29H442.99V332.29H226.99ZM440.99 370.29H228.99V334.29H440.99V370.29Z" fill="#3F3D56"/>
<path d="M586.99 117.29C592.513 117.29 596.99 112.813 596.99 107.29C596.99 101.767 592.513 97.29 586.99 97.29C581.467 97.29 576.99 101.767 576.99 107.29C576.99 112.813 581.467 117.29 586.99 117.29Z" fill="#3F3D56"/>
<path d="M586.99 179.29C592.513 179.29 596.99 174.813 596.99 169.29C596.99 163.767 592.513 159.29 586.99 159.29C581.467 159.29 576.99 163.767 576.99 169.29C576.99 174.813 581.467 179.29 586.99 179.29Z" fill="#3F3D56"/>
<path d="M586.99 241.29C592.513 241.29 596.99 236.813 596.99 231.29C596.99 225.767 592.513 221.29 586.99 221.29C581.467 221.29 576.99 225.767 576.99 231.29C576.99 236.813 581.467 241.29 586.99 241.29Z" fill="#3F3D56"/>
<path d="M586.99 303.29C592.513 303.29 596.99 298.813 596.99 293.29C596.99 287.767 592.513 283.29 586.99 283.29C581.467 283.29 576.99 287.767 576.99 293.29C576.99 298.813 581.467 303.29 586.99 303.29Z" fill="#3F3D56"/>
<path d="M586.99 365.29C592.513 365.29 596.99 360.813 596.99 355.29C596.99 349.767 592.513 345.29 586.99 345.29C581.467 345.29 576.99 349.767 576.99 355.29C576.99 360.813 581.467 365.29 586.99 365.29Z" fill="#3F3D56"/>
<path d="M586.99 427.29C592.513 427.29 596.99 422.813 596.99 417.29C596.99 411.767 592.513 407.29 586.99 407.29C581.467 407.29 576.99 411.767 576.99 417.29C576.99 422.813 581.467 427.29 586.99 427.29Z" fill="#3F3D56"/>
<path d="M950.99 106.29H676.99V108.29H950.99V106.29Z" fill="#3F3D56"/>
<path d="M950.99 168.29H676.99V170.29H950.99V168.29Z" fill="#3F3D56"/>
<path d="M950.99 230.29H676.99V232.29H950.99V230.29Z" fill="#3F3D56"/>
<path d="M950.99 292.29H676.99V294.29H950.99V292.29Z" fill="#3F3D56"/>
<path d="M950.99 354.29H676.99V356.29H950.99V354.29Z" fill="#3F3D56"/>
<path d="M950.99 416.29H676.99V418.29H950.99V416.29Z" fill="#3F3D56"/>
<path d="M619.508 4.0682L594.768 -16.2281L574.472 8.51177L599.212 28.8081L619.508 4.0682Z" fill="#FFB300"/>
<path d="M467.99 169.29C468.035 197.497 459.065 224.98 442.39 247.73C440.49 250.33 438.5 252.87 436.41 255.32C430.507 262.277 423.906 268.61 416.71 274.22C415.99 274.78 415.26 275.34 414.52 275.89C411.82 277.91 409.043 279.827 406.19 281.64C405.32 282.19 404.45 282.73 403.57 283.25C401.58 284.46 399.553 285.613 397.49 286.71C396.48 287.25 395.46 287.78 394.44 288.29C373.48 298.748 350.13 303.488 326.751 302.033C303.372 300.577 280.791 292.977 261.29 280C260.25 279.32 259.23 278.62 258.22 277.9C256.32 276.56 254.45 275.16 252.63 273.72C250.95 272.4 249.31 271.03 247.7 269.63C239.224 262.259 231.714 253.846 225.35 244.59C224.11 242.78 222.91 240.94 221.75 239.07C210.963 221.565 204.382 201.796 202.523 181.319C200.665 160.841 203.579 140.211 211.038 121.049C218.496 101.888 230.296 84.7163 245.51 70.884C260.724 57.0517 278.938 46.9351 298.721 41.3289C318.504 35.7228 339.317 34.7797 359.526 38.5738C379.735 42.3679 398.789 50.7958 415.192 63.1955C431.595 75.5953 444.899 91.6291 454.06 110.038C463.221 128.446 467.989 148.728 467.99 169.29Z" fill="#3F3D56"/>
<path d="M329.981 162.728C349.993 162.728 366.215 146.505 366.215 126.494C366.215 106.482 349.993 90.2594 329.981 90.2594C309.97 90.2594 293.747 106.482 293.747 126.494C293.747 146.505 309.97 162.728 329.981 162.728Z" fill="#FFB6B6"/>
<path d="M305.07 143.856C305.07 143.856 317.148 171.031 300.541 181.6C283.934 192.168 327.717 235.951 327.717 235.951L376.029 184.619C376.029 184.619 350.363 168.012 354.892 140.836L305.07 143.856Z" fill="#FFB6B6"/>
<path d="M416.71 274.22C415.99 274.78 415.26 275.34 414.52 275.89C411.82 277.91 409.043 279.827 406.19 281.64C405.32 282.19 404.45 282.73 403.57 283.25L403.2 281.24L406.68 279.43L416.71 274.22Z" fill="#A0616A"/>
<path d="M403.57 283.25C404.45 282.73 405.32 282.19 406.19 281.64L406.22 281.24L406.68 279.43L425.85 204.25L367.74 177.51L333.76 198.21L303.32 179.44C303.32 179.44 285.44 180.09 280.91 184.62C277.36 188.17 259.95 196.34 252.55 199.72C250.49 200.66 249.21 201.23 249.21 201.23C249.21 201.23 250.35 235.49 252.63 273.72C254.45 275.16 256.32 276.56 258.22 277.9C259.23 278.62 260.25 279.32 261.29 280C280.791 292.977 303.372 300.577 326.751 302.033C350.13 303.488 373.48 298.748 394.44 288.29L403.57 283.25Z" fill="#FFB300"/>
<path d="M261.29 199.72V280C260.25 279.32 259.23 278.62 258.22 277.9C256.32 276.56 254.45 275.16 252.63 273.72C250.95 272.4 249.31 271.03 247.7 269.63C239.224 262.259 231.714 253.846 225.35 244.59C224.11 242.78 222.91 240.94 221.75 239.07C222.73 235.85 223.83 232.293 225.05 228.4C232.6 204.25 249.21 199.72 249.21 199.72H261.29Z" fill="#FFB300"/>
<path d="M403.57 283.25C404.45 282.73 405.32 282.19 406.19 281.64C409.04 279.83 411.817 277.913 414.52 275.89C415.26 275.34 415.99 274.78 416.71 274.22C423.906 268.61 430.507 262.277 436.41 255.32C438.5 252.87 440.49 250.33 442.39 247.73C436.24 228.51 425.85 204.25 425.85 204.25L404.71 202.74C404.71 202.74 396.13 271.42 394.44 288.29L403.57 283.25Z" fill="#FFB300"/>
<path d="M307.765 84.5543C305.952 86.0972 304.061 87.5448 302.097 88.891C299.622 90.9449 297.335 93.2164 295.265 95.6782L292.928 98.2939C290.94 100.52 288.83 103.06 288.914 106.044C288.945 107.151 289.286 108.225 289.419 109.324C289.948 113.686 287.282 118.479 289.476 122.285C290.111 123.386 291.092 124.246 291.791 125.306C292.681 126.665 293.075 128.289 292.907 129.905C295.265 130.001 297.2 127.888 297.939 125.647C298.679 123.406 298.579 120.985 298.939 118.652C299.299 116.32 300.311 113.85 302.43 112.812C306.952 110.597 312.144 116.357 316.971 114.921C320.341 113.919 322.118 109.741 325.564 109.041C328.03 108.54 330.404 110.005 332.696 111.043C334.988 112.082 338.078 112.562 339.699 110.637C340.772 109.363 340.886 107.321 342.31 106.454C344.015 105.416 346.152 106.862 347.443 108.385C348.735 109.907 350.161 111.77 352.157 111.714C354.805 111.641 356.833 108.114 359.347 108.951C362.183 109.895 360.879 114.435 362.6 116.879C364.055 118.946 367.102 118.824 369.607 118.483C370.029 118.526 370.456 118.461 370.846 118.294C371.236 118.127 371.578 117.864 371.839 117.529C372.1 117.194 372.272 116.799 372.338 116.38C372.405 115.96 372.364 115.531 372.22 115.132L371.174 101.26C371.169 100.304 370.96 99.3595 370.56 98.491C369.832 97.1715 368.323 96.5033 367.298 95.399C365.141 93.0771 365.245 89.0066 362.564 87.3182C361.171 86.4415 359.35 86.4678 357.967 85.5757C356.194 84.4315 355.623 82.1401 354.381 80.4342C352.606 77.9955 349.502 76.8648 346.501 76.5545C343.5 76.2443 340.472 76.6185 337.457 76.5201C331.326 76.3201 325.196 74.5949 319.036 75.6048C313.662 76.486 311.405 81.0464 307.765 84.5543Z" fill="#2F2E41"/>
</g>
<defs>
<clipPath id="clip0_217_57">
<rect width="1061.98" height="562.1" fill="white" transform="translate(0 -49)"/>
</clipPath>
</defs>
</svg>
